<?xml version="1.0" encoding="UTF-8" standalone="no"?>
<!-- Created with Inkscape (http://www.inkscape.org/) -->

<svg
   xmlns:dc="http://purl.org/dc/elements/1.1/"
   xmlns:cc="http://creativecommons.org/ns#"
   xmlns:rdf="http://www.w3.org/1999/02/22-rdf-syntax-ns#"
   xmlns:svg="http://www.w3.org/2000/svg"
   xmlns="http://www.w3.org/2000/svg"
   xmlns:sodipodi="http://sodipodi.sourceforge.net/DTD/sodipodi-0.dtd"
   xmlns:inkscape="http://www.inkscape.org/namespaces/inkscape"
   version="1.1"
   width="266.54092"
   height="44.700001"
   id="svg2"
   inkscape:version="0.48.4 r9939"
   sodipodi:docname="logo.svg">
  <sodipodi:namedview
     pagecolor="#ffffff"
     bordercolor="#666666"
     borderopacity="1"
     objecttolerance="10"
     gridtolerance="10"
     guidetolerance="10"
     inkscape:pageopacity="0"
     inkscape:pageshadow="2"
     inkscape:window-width="1916"
     inkscape:window-height="1036"
     id="namedview3023"
     showgrid="false"
     fit-margin-top="0"
     fit-margin-left="0"
     fit-margin-right="0"
     fit-margin-bottom="0"
     inkscape:zoom="3.2897794"
     inkscape:cx="171.22974"
     inkscape:cy="56.168932"
     inkscape:window-x="0"
     inkscape:window-y="18"
     inkscape:window-maximized="0"
     inkscape:current-layer="layer1" />
  <defs
     id="defs4">
    <filter
       color-interpolation-filters="sRGB"
       id="filter3797">
      <feGaussianBlur
         stdDeviation="0.34176797"
         id="feGaussianBlur3799" />
    </filter>
    <filter
       y="-0.25"
       height="1.5"
       color-interpolation-filters="sRGB"
       id="filter3797-5">
      <feGaussianBlur
         stdDeviation="0.34176797"
         id="feGaussianBlur3799-6"
         result="fbSourceGraphic" />
      <feColorMatrix
         result="fbSourceGraphicAlpha"
         in="fbSourceGraphic"
         values="0 0 0 -1 0 0 0 0 -1 0 0 0 0 -1 0 0 0 0 1 0"
         id="feColorMatrix3846" />
      <feGaussianBlur
         id="feGaussianBlur3848"
         stdDeviation="5"
         result="result6"
         in="fbSourceGraphic" />
      <feComposite
         in2="result6"
         operator="atop"
         in="fbSourceGraphic"
         result="result8"
         id="feComposite3850" />
      <feComposite
         in2="fbSourceGraphicAlpha"
         operator="over"
         in="result8"
         result="result9"
         id="feComposite3852" />
      <feColorMatrix
         id="feColorMatrix3854"
         values="1 0 0 0 0 0 1 0 0 0 0 0 1 0 0 0 0 0 1 0 "
         result="result10" />
      <feBlend
         in2="result6"
         mode="normal"
         in="result10"
         id="feBlend3856" />
    </filter>
  </defs>
  <metadata
     id="metadata7">
    <rdf:RDF>
      <cc:Work
         rdf:about="">
        <dc:format>image/svg+xml</dc:format>
        <dc:type
           rdf:resource="http://purl.org/dc/dcmitype/StillImage" />
        <dc:title />
      </cc:Work>
    </rdf:RDF>
  </metadata>
  <g
     transform="translate(-178.13708,-179.49473)"
     id="layer1">
    <path
       inkscape:connector-curvature="0"
       style="font-size:40px;font-style:italic;font-variant:normal;font-weight:bold;font-stretch:normal;text-align:center;line-height:125%;letter-spacing:0px;word-spacing:0px;writing-mode:lr-tb;text-anchor:middle;opacity:0.30083337;fill:#2794f4;fill-opacity:1;stroke:none;filter:url(#filter3797-5);font-family:Good Times;-inkscape-font-specification:Good Times Bold Italic"
       id="path3049"
       d="m 181.65708,216.08076 1,-5.08 21.8,0 c 1.35998,10e-6 2.47998,-0.34666 3.36,-1.04 0.87998,-0.69332 1.42664,-1.61332 1.64,-2.76 0.26664,-1.25332 0.0933,-2.18665 -0.52,-2.8 -0.61336,-0.63998 -1.60002,-0.95998 -2.96,-0.96 l -13.36,0 c -1.36001,2e-5 -2.56001,-0.19998 -3.6,-0.6 -1.01334,-0.42665 -1.82667,-0.99998 -2.44,-1.72 -0.61334,-0.74665 -1.02667,-1.62665 -1.24,-2.64 -0.18667,-1.01331 -0.16,-2.11998 0.08,-3.32 0.21333,-1.17331 0.61333,-2.25331 1.2,-3.24 0.58666,-1.0133 1.33333,-1.87997 2.24,-2.6 0.90666,-0.71997 1.95999,-1.27997 3.16,-1.68 1.19999,-0.42663 2.51999,-0.63997 3.96,-0.64 l 20.88,0 -1,5.08 -20.88,0 c -1.17334,3e-5 -2.14668,0.32003 -2.92,0.96 -0.74667,0.61336 -1.24001,1.48003 -1.48,2.6 -0.21334,1.12002 -0.0533,1.98669 0.48,2.6 0.53333,0.61336 1.35999,0.92002 2.48,0.92 l 13.32,0 c 2.95997,2e-5 5.06664,0.69335 6.32,2.08 1.2533,1.38668 1.59997,3.49335 1.04,6.32 -0.2667,1.22668 -0.69336,2.36001 -1.28,3.4 -0.56003,1.04001 -1.29336,1.94667 -2.2,2.72 -0.90669,0.74667 -1.97336,1.33334 -3.2,1.76 -1.20002,0.42667 -2.56002,0.64 -4.08,0.64 l -21.8,0" />
    <path
       inkscape:connector-curvature="0"
       style="font-size:40px;font-style:italic;font-variant:normal;font-weight:bold;font-stretch:normal;text-align:center;line-height:125%;letter-spacing:0px;word-spacing:0px;writing-mode:lr-tb;text-anchor:middle;opacity:0.30083337;fill:#2794f4;fill-opacity:1;stroke:none;filter:url(#filter3797-5);font-family:Good Times;-inkscape-font-specification:Good Times Bold Italic"
       id="path3051"
       d="m 216.89146,216.08076 1,-5.08 21.8,0 c 1.35997,10e-6 2.47997,-0.34666 3.36,-1.04 0.87997,-0.69332 1.42664,-1.61332 1.64,-2.76 0.26664,-1.25332 0.0933,-2.18665 -0.52,-2.8 -0.61336,-0.63998 -1.60003,-0.95998 -2.96,-0.96 l -13.36,0 c -1.36001,2e-5 -2.56001,-0.19998 -3.6,-0.6 -1.01334,-0.42665 -1.82667,-0.99998 -2.44,-1.72 -0.61334,-0.74665 -1.02667,-1.62665 -1.24,-2.64 -0.18667,-1.01331 -0.16001,-2.11998 0.08,-3.32 0.21333,-1.17331 0.61333,-2.25331 1.2,-3.24 0.58666,-1.0133 1.33332,-1.87997 2.24,-2.6 0.90666,-0.71997 1.95999,-1.27997 3.16,-1.68 1.19999,-0.42663 2.51998,-0.63997 3.96,-0.64 l 20.88,0 -1,5.08 -20.88,0 c -1.17335,3e-5 -2.14668,0.32003 -2.92,0.96 -0.74668,0.61336 -1.24001,1.48003 -1.48,2.6 -0.21334,1.12002 -0.0533,1.98669 0.48,2.6 0.53332,0.61336 1.35999,0.92002 2.48,0.92 l 13.32,0 c 2.95997,2e-5 5.06663,0.69335 6.32,2.08 1.2533,1.38668 1.59996,3.49335 1.04,6.32 -0.2667,1.22668 -0.69337,2.36001 -1.28,3.4 -0.56003,1.04001 -1.29337,1.94667 -2.2,2.72 -0.9067,0.74667 -1.97336,1.33334 -3.2,1.76 -1.20003,0.42667 -2.56003,0.64 -4.08,0.64 l -21.8,0" />
    <path
       inkscape:connector-curvature="0"
       style="font-size:40px;font-style:italic;font-variant:normal;font-weight:bold;font-stretch:normal;text-align:center;line-height:125%;letter-spacing:0px;word-spacing:0px;writing-mode:lr-tb;text-anchor:middle;opacity:0.30083337;fill:#2794f4;fill-opacity:1;stroke:none;filter:url(#filter3797-5);font-family:Good Times;-inkscape-font-specification:Good Times Bold Italic"
       id="path3053"
       d="m 275.48583,216.20076 2.56,-12.64 -14.64,0 0.88,-4.52 14.64,0 2.4,-12.04 5.08,0 -5.84,29.2 -5.08,0 m -23.4,0 5.84,-29.2 5.08,0 -5.84,29.2 -5.08,0" />
    <path
       inkscape:connector-curvature="0"
       style="font-size:40px;font-style:italic;font-variant:normal;font-weight:bold;font-stretch:normal;text-align:center;line-height:125%;letter-spacing:0px;word-spacing:0px;writing-mode:lr-tb;text-anchor:middle;opacity:0.30083337;fill:#2794f4;fill-opacity:1;stroke:none;filter:url(#filter3797-5);font-family:Good Times;-inkscape-font-specification:Good Times Bold Italic"
       id="path3055"
       d="m 310.76799,216.38473 4.8,-24 -11.04,0 1,-5.08 27.16,0 -1,5.08 -11.04,0 -4.8,24 -5.08,0" />
    <path
       inkscape:connector-curvature="0"
       style="font-size:40px;font-style:italic;font-variant:normal;font-weight:bold;font-stretch:normal;text-align:center;line-height:125%;letter-spacing:0px;word-spacing:0px;writing-mode:lr-tb;text-anchor:middle;opacity:0.30083337;fill:#2794f4;fill-opacity:1;stroke:none;filter:url(#filter3797-5);font-family:Good Times;-inkscape-font-specification:Good Times Bold Italic"
       id="path3057"
       d="m 330.27611,216.38473 0,0 m 27,0 -5.76,-8.08 -10.88,0 0.92,-4.48 12.12,0 c 1.83998,2e-5 3.31998,-0.49332 4.44,-1.48 1.14664,-1.01331 1.90664,-2.46665 2.28,-4.36 0.37331,-1.89331 0.15997,-3.29331 -0.64,-4.2 -0.77336,-0.93331 -2.04002,-1.39997 -3.8,-1.4 l -15.84,0 -4.8,24 -5.04,0 5.8,-29.08 20.88,0 c 1.65331,3e-5 3.07997,0.25337 4.28,0.76 1.22664,0.48003 2.19997,1.1867 2.92,2.12 0.71997,0.9067 1.18663,2.01336 1.4,3.32 0.23997,1.30669 0.18663,2.77336 -0.16,4.4 -0.48003,2.42669 -1.41336,4.46669 -2.8,6.12 -1.36003,1.62668 -3.06669,2.80001 -5.12,3.52 l 7,8.84 -7.2,0" />
    <path
       inkscape:connector-curvature="0"
       style="font-size:40px;font-style:italic;font-variant:normal;font-weight:bold;font-stretch:normal;text-align:center;line-height:125%;letter-spacing:0px;word-spacing:0px;writing-mode:lr-tb;text-anchor:middle;opacity:0.30083337;fill:#2794f4;fill-opacity:1;stroke:none;filter:url(#filter3797-5);font-family:Good Times;-inkscape-font-specification:Good Times Bold Italic"
       id="path3059"
       d="m 365.60799,216.38473 0,0 m 14.12,0 c -2.02668,0 -3.82668,-0.37333 -5.4,-1.12 -1.57334,-0.77333 -2.86667,-1.81333 -3.88,-3.12 -0.98667,-1.33332 -1.65334,-2.90665 -2,-4.72 -0.34667,-1.81332 -0.30667,-3.77332 0.12,-5.88 0.42666,-2.13331 1.17333,-4.07998 2.24,-5.84 1.06666,-1.75997 2.34666,-3.2533 3.84,-4.48 1.51999,-1.2533 3.19999,-2.2133 5.04,-2.88 1.86665,-0.6933 3.81331,-1.03997 5.84,-1.04 l 7.08,0 c 2.10664,3e-5 3.95997,0.3467 5.56,1.04 1.62663,0.69337 2.9333,1.6667 3.92,2.92 1.01329,1.25336 1.69329,2.76003 2.04,4.52 0.34663,1.73336 0.30663,3.65336 -0.12,5.76 -0.42671,2.10668 -1.17337,4.06668 -2.24,5.88 -1.0667,1.81335 -2.37337,3.38668 -3.92,4.72 -1.52003,1.30667 -3.2267,2.34667 -5.12,3.12 -1.86669,0.74667 -3.84002,1.12 -5.92,1.12 l -7.08,0 m 8.08,-5.08 c 1.33331,1e-5 2.61331,-0.23999 3.84,-0.72 1.22664,-0.47999 2.31997,-1.13332 3.28,-1.96 0.98663,-0.85332 1.82663,-1.86665 2.52,-3.04 0.6933,-1.17332 1.1733,-2.43998 1.44,-3.8 0.26663,-1.35998 0.2933,-2.61331 0.08,-3.76 -0.21337,-1.17331 -0.65337,-2.17331 -1.32,-3 -0.64003,-0.82664 -1.48003,-1.46664 -2.52,-1.92 -1.01336,-0.47997 -2.1867,-0.71997 -3.52,-0.72 l -7.08,0 c -1.30669,3e-5 -2.56002,0.24003 -3.76,0.72 -1.20002,0.45336 -2.28001,1.09336 -3.24,1.92 -0.96001,0.82669 -1.78668,1.81336 -2.48,2.96 -0.69334,1.14669 -1.17334,2.41335 -1.44,3.8 -0.26668,1.36002 -0.29334,2.62668 -0.08,3.8 0.21332,1.17335 0.63999,2.18668 1.28,3.04 0.63999,0.82668 1.45332,1.48001 2.44,1.96 1.01332,0.48001 2.17332,0.72001 3.48,0.72 l 7.08,0" />
    <path
       inkscape:connector-curvature="0"
       style="font-size:40px;font-style:italic;font-variant:normal;font-weight:bold;font-stretch:normal;text-align:center;line-height:125%;letter-spacing:0px;word-spacing:0px;writing-mode:lr-tb;text-anchor:middle;opacity:0.30083337;fill:#2794f4;fill-opacity:1;stroke:none;filter:url(#filter3797-5);font-family:Good Times;-inkscape-font-specification:Good Times Bold Italic"
       id="path3061"
       d="m 405.07799,216.38473 0,0 m 9.08,-21.28 -4.24,21.28 -4.84,0 5.28,-26.4 c 0.18666,-0.9333 0.55999,-1.66663 1.12,-2.2 0.58666,-0.55997 1.27999,-0.83997 2.08,-0.84 0.37332,3e-5 0.71999,0.08 1.04,0.24 0.31999,0.16003 0.62665,0.4267 0.92,0.8 l 16.44,20.36 4.28,-21.28 4.84,0 -5.36,26.64 c -0.1867,0.96001 -0.57337,1.70667 -1.16,2.24 -0.56003,0.53334 -1.21336,0.8 -1.96,0.8 -0.8267,0 -1.52003,-0.36 -2.08,-1.08 l -16.36,-20.56" />
    <path
       inkscape:connector-curvature="0"
       style="font-size:40px;font-style:italic;font-variant:normal;font-weight:bold;font-stretch:normal;text-align:center;line-height:125%;letter-spacing:0px;word-spacing:0px;writing-mode:lr-tb;text-anchor:middle;fill:#5addf4;fill-opacity:1;stroke:none;filter:url(#filter3797);font-family:Good Times;-inkscape-font-specification:Good Times Bold Italic"
       id="path3064"
       d="m 181.94947,216.32138 1,-5.08 21.8,0 c 1.35998,1e-5 2.47998,-0.34666 3.36,-1.04 0.87997,-0.69333 1.42664,-1.61332 1.64,-2.76 0.26664,-1.25332 0.0933,-2.18665 -0.52,-2.8 -0.61336,-0.63999 -1.60002,-0.95999 -2.96,-0.96 l -13.36,0 c -1.36001,1e-5 -2.56001,-0.19999 -3.6,-0.6 -1.01334,-0.42665 -1.82667,-0.99999 -2.44,-1.72 -0.61334,-0.74665 -1.02667,-1.62665 -1.24,-2.64 -0.18667,-1.01331 -0.16,-2.11998 0.08,-3.32 0.21333,-1.17331 0.61333,-2.25331 1.2,-3.24 0.58666,-1.01331 1.33333,-1.87997 2.24,-2.6 0.90666,-0.71997 1.95999,-1.27997 3.16,-1.68 1.19999,-0.42664 2.51999,-0.63997 3.96,-0.64 l 20.88,0 -1,5.08 -20.88,0 c -1.17334,2e-5 -2.14668,0.32002 -2.92,0.96 -0.74667,0.61336 -1.24001,1.48002 -1.48,2.6 -0.21334,1.12002 -0.0533,1.98669 0.48,2.6 0.53332,0.61335 1.35999,0.92002 2.48,0.92 l 13.32,0 c 2.95997,2e-5 5.06664,0.69335 6.32,2.08 1.2533,1.38668 1.59997,3.49335 1.04,6.32 -0.2667,1.22667 -0.69336,2.36001 -1.28,3.4 -0.56003,1.04 -1.29336,1.94667 -2.2,2.72 -0.90669,0.74667 -1.97336,1.33334 -3.2,1.76 -1.20002,0.42667 -2.56002,0.64 -4.08,0.64 l -21.8,0" />
    <path
       inkscape:connector-curvature="0"
       style="font-size:40px;font-style:italic;font-variant:normal;font-weight:bold;font-stretch:normal;text-align:center;line-height:125%;letter-spacing:0px;word-spacing:0px;writing-mode:lr-tb;text-anchor:middle;fill:#5addf4;fill-opacity:1;stroke:none;filter:url(#filter3797);font-family:Good Times;-inkscape-font-specification:Good Times Bold Italic"
       id="path3066"
       d="m 217.18385,216.32138 1,-5.08 21.8,0 c 1.35997,1e-5 2.47997,-0.34666 3.36,-1.04 0.87997,-0.69333 1.42664,-1.61332 1.64,-2.76 0.26663,-1.25332 0.0933,-2.18665 -0.52,-2.8 -0.61336,-0.63999 -1.60003,-0.95999 -2.96,-0.96 l -13.36,0 c -1.36001,1e-5 -2.56001,-0.19999 -3.6,-0.6 -1.01334,-0.42665 -1.82668,-0.99999 -2.44,-1.72 -0.61334,-0.74665 -1.02667,-1.62665 -1.24,-2.64 -0.18667,-1.01331 -0.16001,-2.11998 0.08,-3.32 0.21333,-1.17331 0.61333,-2.25331 1.2,-3.24 0.58666,-1.01331 1.33332,-1.87997 2.24,-2.6 0.90665,-0.71997 1.95999,-1.27997 3.16,-1.68 1.19998,-0.42664 2.51998,-0.63997 3.96,-0.64 l 20.88,0 -1,5.08 -20.88,0 c -1.17335,2e-5 -2.14668,0.32002 -2.92,0.96 -0.74668,0.61336 -1.24001,1.48002 -1.48,2.6 -0.21335,1.12002 -0.0533,1.98669 0.48,2.6 0.53332,0.61335 1.35999,0.92002 2.48,0.92 l 13.32,0 c 2.95997,2e-5 5.06663,0.69335 6.32,2.08 1.2533,1.38668 1.59996,3.49335 1.04,6.32 -0.2667,1.22667 -0.69337,2.36001 -1.28,3.4 -0.56003,1.04 -1.29337,1.94667 -2.2,2.72 -0.9067,0.74667 -1.97336,1.33334 -3.2,1.76 -1.20003,0.42667 -2.56003,0.64 -4.08,0.64 l -21.8,0" />
    <path
       inkscape:connector-curvature="0"
       style="font-size:40px;font-style:italic;font-variant:normal;font-weight:bold;font-stretch:normal;text-align:center;line-height:125%;letter-spacing:0px;word-spacing:0px;writing-mode:lr-tb;text-anchor:middle;fill:#5addf4;fill-opacity:1;stroke:none;filter:url(#filter3797);font-family:Good Times;-inkscape-font-specification:Good Times Bold Italic"
       id="path3068"
       d="m 275.77822,216.44138 2.56,-12.64 -14.64,0 0.88,-4.52 14.64,0 2.4,-12.04 5.08,0 -5.84,29.2 -5.08,0 m -23.4,0 5.84,-29.2 5.08,0 -5.84,29.2 -5.08,0" />
    <path
       inkscape:connector-curvature="0"
       style="font-size:40px;font-style:italic;font-variant:normal;font-weight:bold;font-stretch:normal;text-align:center;line-height:125%;letter-spacing:0px;word-spacing:0px;writing-mode:lr-tb;text-anchor:middle;fill:#5addf4;fill-opacity:1;stroke:none;filter:url(#filter3797);font-family:Good Times;-inkscape-font-specification:Good Times Bold Italic"
       id="path3070"
       d="m 311.06038,216.0174 4.8,-24 -11.04,0 1,-5.08 27.16,0 -1,5.08 -11.04,0 -4.8,24 -5.08,0" />
    <path
       inkscape:connector-curvature="0"
       style="font-size:40px;font-style:italic;font-variant:normal;font-weight:bold;font-stretch:normal;text-align:center;line-height:125%;letter-spacing:0px;word-spacing:0px;writing-mode:lr-tb;text-anchor:middle;fill:#5addf4;fill-opacity:1;stroke:none;filter:url(#filter3797);font-family:Good Times;-inkscape-font-specification:Good Times Bold Italic"
       id="path3072"
       d="m 330.5685,216.0174 0,0 m 27,0 -5.76,-8.08 -10.88,0 0.92,-4.48 12.12,0 c 1.83998,1e-5 3.31997,-0.49332 4.44,-1.48 1.14664,-1.01332 1.90664,-2.46665 2.28,-4.36 0.3733,-1.89331 0.15997,-3.29331 -0.64,-4.2 -0.77336,-0.93331 -2.04003,-1.39998 -3.8,-1.4 l -15.84,0 -4.8,24 -5.04,0 5.8,-29.08 20.88,0 c 1.65331,3e-5 3.07997,0.25336 4.28,0.76 1.22664,0.48003 2.19997,1.18669 2.92,2.12 0.71997,0.90669 1.18663,2.01336 1.4,3.32 0.23997,1.30669 0.18663,2.77335 -0.16,4.4 -0.48003,2.42668 -1.41337,4.46668 -2.8,6.12 -1.36003,1.62668 -3.06669,2.80001 -5.12,3.52 l 7,8.84 -7.2,0" />
    <path
       inkscape:connector-curvature="0"
       style="font-size:40px;font-style:italic;font-variant:normal;font-weight:bold;font-stretch:normal;text-align:center;line-height:125%;letter-spacing:0px;word-spacing:0px;writing-mode:lr-tb;text-anchor:middle;fill:#5addf4;fill-opacity:1;stroke:none;filter:url(#filter3797);font-family:Good Times;-inkscape-font-specification:Good Times Bold Italic"
       id="path3074"
       d="m 365.90038,216.0174 0,0 m 14.12,0 c -2.02668,0 -3.82668,-0.37333 -5.4,-1.12 -1.57334,-0.77333 -2.86668,-1.81333 -3.88,-3.12 -0.98667,-1.33333 -1.65334,-2.90666 -2,-4.72 -0.34667,-1.81332 -0.30667,-3.77332 0.12,-5.88 0.42666,-2.13332 1.17333,-4.07998 2.24,-5.84 1.06666,-1.75998 2.34666,-3.25331 3.84,-4.48 1.51999,-1.25331 3.19998,-2.21331 5.04,-2.88 1.86665,-0.6933 3.81331,-1.03997 5.84,-1.04 l 7.08,0 c 2.10663,3e-5 3.95997,0.3467 5.56,1.04 1.62663,0.69336 2.9333,1.66669 3.92,2.92 1.01329,1.25336 1.69329,2.76002 2.04,4.52 0.34662,1.73335 0.30663,3.65335 -0.12,5.76 -0.42671,2.10668 -1.17337,4.06668 -2.24,5.88 -1.0667,1.81334 -2.37337,3.38667 -3.92,4.72 -1.52003,1.30667 -3.2267,2.34667 -5.12,3.12 -1.86669,0.74667 -3.84003,1.12 -5.92,1.12 l -7.08,0 m 8.08,-5.08 c 1.33331,1e-5 2.61331,-0.23999 3.84,-0.72 1.22664,-0.47999 2.31997,-1.13333 3.28,-1.96 0.98663,-0.85332 1.82663,-1.86666 2.52,-3.04 0.6933,-1.17332 1.1733,-2.43999 1.44,-3.8 0.26663,-1.35998 0.2933,-2.61332 0.08,-3.76 -0.21337,-1.17331 -0.65337,-2.17331 -1.32,-3 -0.64003,-0.82664 -1.48003,-1.46664 -2.52,-1.92 -1.01336,-0.47998 -2.1867,-0.71998 -3.52,-0.72 l -7.08,0 c -1.30669,2e-5 -2.56002,0.24002 -3.76,0.72 -1.20002,0.45336 -2.28002,1.09336 -3.24,1.92 -0.96001,0.82669 -1.78668,1.81335 -2.48,2.96 -0.69334,1.14668 -1.17334,2.41335 -1.44,3.8 -0.26668,1.36001 -0.29334,2.62668 -0.08,3.8 0.21332,1.17334 0.63999,2.18668 1.28,3.04 0.63999,0.82667 1.45332,1.48001 2.44,1.96 1.01332,0.48001 2.17332,0.72001 3.48,0.72 l 7.08,0" />
    <path
       inkscape:connector-curvature="0"
       style="font-size:40px;font-style:italic;font-variant:normal;font-weight:bold;font-stretch:normal;text-align:center;line-height:125%;letter-spacing:0px;word-spacing:0px;writing-mode:lr-tb;text-anchor:middle;fill:#5addf4;fill-opacity:1;stroke:none;filter:url(#filter3797);font-family:Good Times;-inkscape-font-specification:Good Times Bold Italic"
       id="path3076"
       d="m 405.37038,216.0174 0,0 m 9.08,-21.28 -4.24,21.28 -4.84,0 5.28,-26.4 c 0.18666,-0.93331 0.55999,-1.66664 1.12,-2.2 0.58666,-0.55997 1.27999,-0.83997 2.08,-0.84 0.37332,3e-5 0.71999,0.08 1.04,0.24 0.31999,0.16003 0.62665,0.4267 0.92,0.8 l 16.44,20.36 4.28,-21.28 4.84,0 -5.36,26.64 c -0.1867,0.96 -0.57337,1.70667 -1.16,2.24 -0.56003,0.53333 -1.21337,0.8 -1.96,0.8 -0.8267,0 -1.52003,-0.36 -2.08,-1.08 l -16.36,-20.56" />
    <path
       inkscape:connector-curvature="0"
       style="font-size:40px;font-style:italic;font-variant:normal;font-weight:bold;font-stretch:normal;text-align:center;line-height:125%;letter-spacing:0px;word-spacing:0px;writing-mode:lr-tb;text-anchor:middle;fill:#5addf4;fill-opacity:1;stroke:none;filter:url(#filter3797);font-family:Good Times;-inkscape-font-specification:Good Times Bold Italic"
       id="path3079"
       d="m 181.69697,215.56378 1,-5.08 21.8,0 c 1.35997,1e-5 2.47997,-0.34666 3.36,-1.04 0.87997,-0.69332 1.42664,-1.61332 1.64,-2.76 0.26664,-1.25332 0.0933,-2.18665 -0.52,-2.8 -0.61336,-0.63999 -1.60003,-0.95999 -2.96,-0.96 l -13.36,0 c -1.36001,1e-5 -2.56001,-0.19999 -3.6,-0.6 -1.01334,-0.42665 -1.82667,-0.99998 -2.44,-1.72 -0.61334,-0.74665 -1.02667,-1.62665 -1.24,-2.64 -0.18667,-1.01331 -0.16,-2.11998 0.08,-3.32 0.21333,-1.17331 0.61333,-2.25331 1.2,-3.24 0.58666,-1.01331 1.33333,-1.87997 2.24,-2.6 0.90666,-0.71997 1.95999,-1.27997 3.16,-1.68 1.19999,-0.42664 2.51999,-0.63997 3.96,-0.64 l 20.88,0 -1,5.08 -20.88,0 c -1.17335,3e-5 -2.14668,0.32003 -2.92,0.96 -0.74668,0.61336 -1.24001,1.48002 -1.48,2.6 -0.21334,1.12002 -0.0533,1.98669 0.48,2.6 0.53332,0.61335 1.35999,0.92002 2.48,0.92 l 13.32,0 c 2.95997,2e-5 5.06664,0.69335 6.32,2.08 1.2533,1.38668 1.59997,3.49335 1.04,6.32 -0.2667,1.22668 -0.69337,2.36001 -1.28,3.4 -0.56003,1.04001 -1.29336,1.94667 -2.2,2.72 -0.9067,0.74667 -1.97336,1.33334 -3.2,1.76 -1.20003,0.42667 -2.56002,0.64 -4.08,0.64 l -21.8,0" />
    <path
       inkscape:connector-curvature="0"
       style="font-size:40px;font-style:italic;font-variant:normal;font-weight:bold;font-stretch:normal;text-align:center;line-height:125%;letter-spacing:0px;word-spacing:0px;writing-mode:lr-tb;text-anchor:middle;fill:#5addf4;fill-opacity:1;stroke:none;filter:url(#filter3797);font-family:Good Times;-inkscape-font-specification:Good Times Bold Italic"
       id="path3081"
       d="m 216.93135,215.56378 1,-5.08 21.8,0 c 1.35997,1e-5 2.47997,-0.34666 3.36,-1.04 0.87997,-0.69332 1.42663,-1.61332 1.64,-2.76 0.26663,-1.25332 0.0933,-2.18665 -0.52,-2.8 -0.61337,-0.63999 -1.60003,-0.95999 -2.96,-0.96 l -13.36,0 c -1.36002,1e-5 -2.56001,-0.19999 -3.6,-0.6 -1.01335,-0.42665 -1.82668,-0.99998 -2.44,-1.72 -0.61334,-0.74665 -1.02668,-1.62665 -1.24,-2.64 -0.18668,-1.01331 -0.16001,-2.11998 0.08,-3.32 0.21332,-1.17331 0.61332,-2.25331 1.2,-3.24 0.58666,-1.01331 1.33332,-1.87997 2.24,-2.6 0.90665,-0.71997 1.95998,-1.27997 3.16,-1.68 1.19998,-0.42664 2.51998,-0.63997 3.96,-0.64 l 20.88,0 -1,5.08 -20.88,0 c -1.17335,3e-5 -2.14668,0.32003 -2.92,0.96 -0.74668,0.61336 -1.24002,1.48002 -1.48,2.6 -0.21335,1.12002 -0.0533,1.98669 0.48,2.6 0.53332,0.61335 1.35998,0.92002 2.48,0.92 l 13.32,0 c 2.95997,2e-5 5.06663,0.69335 6.32,2.08 1.25329,1.38668 1.59996,3.49335 1.04,6.32 -0.26671,1.22668 -0.69337,2.36001 -1.28,3.4 -0.56004,1.04001 -1.29337,1.94667 -2.2,2.72 -0.9067,0.74667 -1.97337,1.33334 -3.2,1.76 -1.20003,0.42667 -2.56003,0.64 -4.08,0.64 l -21.8,0" />
    <path
       inkscape:connector-curvature="0"
       style="font-size:40px;font-style:italic;font-variant:normal;font-weight:bold;font-stretch:normal;text-align:center;line-height:125%;letter-spacing:0px;word-spacing:0px;writing-mode:lr-tb;text-anchor:middle;fill:#5addf4;fill-opacity:1;stroke:none;filter:url(#filter3797);font-family:Good Times;-inkscape-font-specification:Good Times Bold Italic"
       id="path3083"
       d="m 275.52572,215.68378 2.56,-12.64 -14.64,0 0.88,-4.52 14.64,0 2.4,-12.04 5.08,0 -5.84,29.2 -5.08,0 m -23.4,0 5.84,-29.2 5.08,0 -5.84,29.2 -5.08,0" />
    <path
       inkscape:connector-curvature="0"
       style="font-size:40px;font-style:italic;font-variant:normal;font-weight:bold;font-stretch:normal;text-align:center;line-height:125%;letter-spacing:0px;word-spacing:0px;writing-mode:lr-tb;text-anchor:middle;fill:#5addf4;fill-opacity:1;stroke:none;filter:url(#filter3797);font-family:Good Times;-inkscape-font-specification:Good Times Bold Italic"
       id="path3085"
       d="m 310.80788,216.17172 4.8,-24 -11.04,0 1,-5.08 27.16,0 -1,5.08 -11.04,0 -4.8,24 -5.08,0" />
    <path
       inkscape:connector-curvature="0"
       style="font-size:40px;font-style:italic;font-variant:normal;font-weight:bold;font-stretch:normal;text-align:center;line-height:125%;letter-spacing:0px;word-spacing:0px;writing-mode:lr-tb;text-anchor:middle;fill:#5addf4;fill-opacity:1;stroke:none;filter:url(#filter3797);font-family:Good Times;-inkscape-font-specification:Good Times Bold Italic"
       id="path3087"
       d="m 330.316,216.17172 0,0 m 27,0 -5.76,-8.08 -10.88,0 0.92,-4.48 12.12,0 c 1.83997,1e-5 3.31997,-0.49332 4.44,-1.48 1.14664,-1.01332 1.90664,-2.46665 2.28,-4.36 0.3733,-1.89331 0.15997,-3.29331 -0.64,-4.2 -0.77336,-0.93331 -2.04003,-1.39997 -3.8,-1.4 l -15.84,0 -4.8,24 -5.04,0 5.8,-29.08 20.88,0 c 1.6533,3e-5 3.07997,0.25336 4.28,0.76 1.22663,0.48003 2.19997,1.1867 2.92,2.12 0.71996,0.90669 1.18663,2.01336 1.4,3.32 0.23996,1.30669 0.18663,2.77336 -0.16,4.4 -0.48004,2.42668 -1.41337,4.46668 -2.8,6.12 -1.36003,1.62668 -3.0667,2.80001 -5.12,3.52 l 7,8.84 -7.2,0" />
    <path
       inkscape:connector-curvature="0"
       style="font-size:40px;font-style:italic;font-variant:normal;font-weight:bold;font-stretch:normal;text-align:center;line-height:125%;letter-spacing:0px;word-spacing:0px;writing-mode:lr-tb;text-anchor:middle;fill:#5addf4;fill-opacity:1;stroke:none;filter:url(#filter3797);font-family:Good Times;-inkscape-font-specification:Good Times Bold Italic"
       id="path3089"
       d="m 365.64788,216.17172 0,0 m 14.12,0 c -2.02668,0 -3.82668,-0.37333 -5.4,-1.12 -1.57335,-0.77333 -2.86668,-1.81333 -3.88,-3.12 -0.98668,-1.33333 -1.65334,-2.90666 -2,-4.72 -0.34667,-1.81332 -0.30667,-3.77332 0.12,-5.88 0.42666,-2.13331 1.17332,-4.07998 2.24,-5.84 1.06666,-1.75998 2.34665,-3.25331 3.84,-4.48 1.51998,-1.25331 3.19998,-2.2133 5.04,-2.88 1.86665,-0.6933 3.81331,-1.03997 5.84,-1.04 l 7.08,0 c 2.10663,3e-5 3.95996,0.3467 5.56,1.04 1.62663,0.69336 2.93329,1.66669 3.92,2.92 1.01329,1.25336 1.69329,2.76002 2.04,4.52 0.34662,1.73335 0.30662,3.65335 -0.12,5.76 -0.42671,2.10668 -1.17338,4.06668 -2.24,5.88 -1.06671,1.81334 -2.37337,3.38667 -3.92,4.72 -1.52004,1.30667 -3.2267,2.34667 -5.12,3.12 -1.8667,0.74667 -3.84003,1.12 -5.92,1.12 l -7.08,0 m 8.08,-5.08 c 1.3333,1e-5 2.6133,-0.23999 3.84,-0.72 1.22663,-0.47999 2.31997,-1.13332 3.28,-1.96 0.98663,-0.85332 1.82663,-1.86666 2.52,-3.04 0.6933,-1.17332 1.1733,-2.43999 1.44,-3.8 0.26663,-1.35998 0.29329,-2.61331 0.08,-3.76 -0.21337,-1.17331 -0.65337,-2.17331 -1.32,-3 -0.64004,-0.82664 -1.48004,-1.46664 -2.52,-1.92 -1.01337,-0.47997 -2.1867,-0.71997 -3.52,-0.72 l -7.08,0 c -1.30669,3e-5 -2.56002,0.24003 -3.76,0.72 -1.20002,0.45336 -2.28002,1.09336 -3.24,1.92 -0.96002,0.82669 -1.78668,1.81335 -2.48,2.96 -0.69335,1.14669 -1.17335,2.41335 -1.44,3.8 -0.26668,1.36001 -0.29335,2.62668 -0.08,3.8 0.21332,1.17334 0.63999,2.18668 1.28,3.04 0.63998,0.82668 1.45332,1.48001 2.44,1.96 1.01332,0.48001 2.17331,0.72001 3.48,0.72 l 7.08,0" />
    <path
       inkscape:connector-curvature="0"
       style="font-size:40px;font-style:italic;font-variant:normal;font-weight:bold;font-stretch:normal;text-align:center;line-height:125%;letter-spacing:0px;word-spacing:0px;writing-mode:lr-tb;text-anchor:middle;fill:#5addf4;fill-opacity:1;stroke:none;filter:url(#filter3797);font-family:Good Times;-inkscape-font-specification:Good Times Bold Italic"
       id="path3091"
       d="m 405.11788,216.17172 0,0 m 9.08,-21.28 -4.24,21.28 -4.84,0 5.28,-26.4 c 0.18666,-0.9333 0.55999,-1.66664 1.12,-2.2 0.58665,-0.55997 1.27999,-0.83997 2.08,-0.84 0.37332,3e-5 0.71998,0.08 1.04,0.24 0.31998,0.16003 0.62665,0.4267 0.92,0.8 l 16.44,20.36 4.28,-21.28 4.84,0 -5.36,26.64 c -0.1867,0.96 -0.57337,1.70667 -1.16,2.24 -0.56003,0.53333 -1.21337,0.8 -1.96,0.8 -0.8267,0 -1.52003,-0.36 -2.08,-1.08 l -16.36,-20.56" />
  </g>
</svg>
